<svg
  xmlns="http://www.w3.org/2000/svg"
  viewBox="0 0 167 167"
  fill="none"
  aria-label="Orvenix"
>
  <defs>
    <linearGradient id="orv-icon-g" x1="0" y1="0" x2="167" y2="167" gradientUnits="userSpaceOnUse">
      <stop offset="0%" stop-color="#00c8ea" />
      <stop offset="55%" stop-color="#009dcc" />
      <stop offset="100%" stop-color="#1a4a94" />
    </linearGradient>
  </defs>

  <g stroke="url(#orv-icon-g)" stroke-linecap="round" stroke-linejoin="round">
    <polygon points="83.50,16.50 141.52,50.00 141.52,117.00 83.50,150.50 25.48,117.00 25.48,50.00" stroke-width="4.79" />
    <line x1="83.50" y1="16.50" x2="83.50" y2="150.50" stroke-width="3.93" />
    <line x1="141.52" y1="50.00" x2="25.48" y2="117.00" stroke-width="3.93" />
    <line x1="141.52" y1="117.00" x2="25.48" y2="50.00" stroke-width="3.93" />
    <polygon points="83.50,41.63 119.76,62.56 119.76,104.44 83.50,125.37 47.24,104.44 47.24,62.56" stroke-width="3.93" />
    <polygon points="83.50,62.40 101.76,72.95 101.76,94.05 83.50,104.60 65.24,94.05 65.24,72.95" stroke-width="3.45" />
    <circle cx="83.50" cy="16.50" r="4.07" fill="url(#orv-icon-g)" stroke="none" />
    <circle cx="141.52" cy="50.00" r="4.07" fill="url(#orv-icon-g)" stroke="none" />
    <circle cx="141.52" cy="117.00" r="4.07" fill="url(#orv-icon-g)" stroke="none" />
    <circle cx="83.50" cy="150.50" r="4.07" fill="url(#orv-icon-g)" stroke="none" />
    <circle cx="25.48" cy="117.00" r="4.07" fill="url(#orv-icon-g)" stroke="none" />
    <circle cx="25.48" cy="50.00" r="4.07" fill="url(#orv-icon-g)" stroke="none" />
  </g>
</svg>
